<svg width="134" height="52" viewBox="0 0 134 52" fill="none" xmlns="http://www.w3.org/2000/svg">
<g id="icon-gemenai">
<path id="shape-g" d="M32.9605 35.0425C32.9605 39.8558 31.6099 43.6904 28.9087 46.5463C25.8737 49.9476 21.8826 51.6483 16.9355 51.6483C12.2008 51.6483 8.1946 49.9155 4.91676 46.45C1.63892 42.9844 0 38.7167 0 33.6467C0 28.5767 1.63892 24.3089 4.91676 20.8434C8.1946 17.3778 12.2008 15.645 16.9355 15.645C19.3332 15.645 21.5943 16.0943 23.7188 16.9927C25.8433 17.8912 27.5885 19.1587 28.9543 20.7952L25.9496 23.972C24.948 22.6884 23.6505 21.6857 22.0571 20.9637C20.4637 20.2417 18.7565 19.8807 16.9355 19.8807C13.3845 19.8807 10.3798 21.1803 7.92145 23.7795C5.49342 26.4107 4.2794 29.6998 4.2794 33.6467C4.2794 37.5936 5.49342 40.8826 7.92145 43.5139C10.3798 46.1131 13.3845 47.4126 16.9355 47.4126C20.183 47.4126 22.8842 46.45 25.0391 44.5247C27.1939 42.5994 28.4383 39.9521 28.7721 36.5828H16.9355V32.4434H32.7329C32.8846 33.3418 32.9605 34.2082 32.9605 35.0425Z" fill="url(#paint0_radial_139_2406)"/>
<path id="shape-e" d="M46.1071 26.6206C49.4488 26.6206 52.1083 27.7632 54.0857 30.0483C56.0631 32.3334 57.0518 35.5342 57.0518 39.6506L57.0058 40.1368H39.3012C39.3625 42.4706 40.0983 44.3505 41.5085 45.7767C42.9188 47.2029 44.6049 47.9159 46.567 47.9159C49.2648 47.9159 51.3802 46.4898 52.913 43.6374L56.6839 45.5822C55.6722 47.5918 54.2696 49.1638 52.4762 50.2983C50.6827 51.4328 48.6517 52 46.383 52C43.072 52 40.3435 50.8007 38.1975 48.4021C36.0515 46.0036 34.9785 42.973 34.9785 39.3103C34.9785 35.68 36.0209 32.6575 38.1056 30.2428C40.1903 27.828 42.8574 26.6206 46.1071 26.6206ZM46.0151 30.7046C44.421 30.7046 43.049 31.2233 41.8994 32.2605C40.7497 33.2977 39.991 34.6914 39.6231 36.4417H52.5451C52.4225 34.7887 51.7864 33.4192 50.6367 32.3334C49.4871 31.2476 47.9465 30.7046 46.0151 30.7046Z" fill="url(#paint1_radial_139_2406)"/>
<path id="shape-m" d="M63.9884 51.1474H59.7705V27.3962H63.805V30.6923H63.9884C64.6302 29.5289 65.6159 28.5595 66.9455 27.7839C68.275 27.0084 69.5969 26.6206 70.9112 26.6206C72.5617 26.6206 74.0135 27.0245 75.2666 27.8324C76.5197 28.6403 77.4367 29.7551 78.0174 31.177C79.8818 28.1394 82.4645 26.6206 85.7654 26.6206C88.3634 26.6206 90.3654 27.4608 91.7713 29.1412C93.1773 30.8215 93.8803 33.2128 93.8803 36.315V51.1474H89.6624V36.9936C89.6624 34.7639 89.2803 33.1562 88.5162 32.1707C87.7521 31.1851 86.4684 30.6923 84.6651 30.6923C83.0452 30.6923 81.6851 31.4193 80.5848 32.8735C79.4845 34.3277 78.9343 36.0403 78.9343 38.0115V51.1474H74.7164V36.9936C74.7164 34.7639 74.3344 33.1562 73.5703 32.1707C72.8062 31.1851 71.5225 30.6923 69.7192 30.6923C68.0993 30.6923 66.7392 31.4193 65.6389 32.8735C64.5385 34.3277 63.9884 36.0403 63.9884 38.0115V51.1474Z" fill="url(#paint2_radial_139_2406)"/>
<path id="shape-i2" d="M102.924 19.1526C102.924 20.0265 102.633 20.771 102.052 21.386C101.47 22.0009 100.766 22.3084 99.9395 22.3084C99.1129 22.3084 98.4087 22.0009 97.8271 21.386C97.2454 20.771 96.9546 20.0265 96.9546 19.1526C96.9546 18.2787 97.2454 17.5343 97.8271 16.9193C98.4087 16.3043 99.1129 15.9968 99.9395 15.9968C100.766 15.9968 101.47 16.3043 102.052 16.9193C102.633 17.5343 102.924 18.2787 102.924 19.1526ZM102.052 27.3577V51.1476H97.8271V27.3577H102.052Z" fill="url(#paint3_linear_139_2406)"/>
<path id="shape-i" d="M134 19.1526C134 20.0265 133.709 20.771 133.128 21.386C132.546 22.0009 131.842 22.3084 131.015 22.3084C130.189 22.3084 129.484 22.0009 128.903 21.386C128.321 20.771 128.03 20.0265 128.03 19.1526C128.03 18.2787 128.321 17.5343 128.903 16.9193C129.484 16.3043 130.189 15.9968 131.015 15.9968C131.842 15.9968 132.546 16.3043 133.128 16.9193C133.709 17.5343 134 18.2787 134 19.1526ZM133.128 27.3577V51.1476H128.903V27.3577H133.128Z" fill="url(#paint4_radial_139_2406)"/>
<path id="shape-n" d="M105.735 27.3962H109.77V30.6923H109.953C110.595 29.5289 111.581 28.5595 112.91 27.7839C114.24 27.0084 115.623 26.6206 117.059 26.6206C119.81 26.6206 121.927 27.4527 123.409 29.1169C124.892 30.7811 125.633 33.1482 125.633 36.2181V51.1474H121.415V36.5089C121.323 32.6311 119.474 30.6923 115.867 30.6923C114.186 30.6923 112.78 31.4113 111.65 32.8493C110.519 34.2873 109.953 36.008 109.953 38.0115V51.1474H105.735V27.3962Z" fill="url(#paint5_linear_139_2406)"/>
<path id="shape-star" d="M91.176 20.133C90.4309 14.9345 86.5717 10.8543 81.6548 10.0665C86.5717 9.27873 90.4309 5.1985 91.176 0C91.9211 5.1985 95.7803 9.27873 100.697 10.0665C95.7803 10.8543 91.9211 14.9345 91.176 20.133Z" fill="#27272A"/>
</g>
<defs>
<radialGradient id="paint0_radial_139_2406" cx="0" cy="0" r="1" gradientTransform="matrix(-2954.16 1722.39 -1379.66 -2478.02 -2799.87 812.079)" gradientUnits="userSpaceOnUse">
<stop stop-color="#27272A"/>
<stop offset="1" stop-color="#3F3F46"/>
</radialGradient>
<radialGradient id="paint1_radial_139_2406" cx="0" cy="0" r="1" gradientTransform="matrix(-262.217 1710.95 -1913.95 -277.221 -864.605 1251.55)" gradientUnits="userSpaceOnUse">
<stop stop-color="#27272A"/>
<stop offset="1" stop-color="#52525C"/>
</radialGradient>
<radialGradient id="paint2_radial_139_2406" cx="0" cy="0" r="1" gradientTransform="matrix(-613.178 3880.02 -1697.46 -648.301 -611.912 1806.22)" gradientUnits="userSpaceOnUse">
<stop stop-color="#27272A"/>
<stop offset="1" stop-color="#52525C"/>
</radialGradient>
<linearGradient id="paint3_linear_139_2406" x1="388.796" y1="325.64" x2="388.796" y2="3531.07" gradientUnits="userSpaceOnUse">
<stop stop-color="#27272A"/>
<stop offset="1" stop-color="#52525C"/>
</linearGradient>
<radialGradient id="paint4_radial_139_2406" cx="0" cy="0" r="1" gradientTransform="matrix(1295.1 537.454 -15763.2 1369.59 -743.053 -136.325)" gradientUnits="userSpaceOnUse">
<stop stop-color="#18181B"/>
<stop offset="1" stop-color="#52525C"/>
</radialGradient>
<linearGradient id="paint5_linear_139_2406" x1="368.717" y1="26.6206" x2="2059.81" y2="2003.24" gradientUnits="userSpaceOnUse">
<stop stop-color="#27272A"/>
<stop offset="1" stop-color="#52525C"/>
</linearGradient>
</defs>
</svg>
