<svg width="163" height="150" viewBox="0 0 163 150" fill="none" xmlns="http://www.w3.org/2000/svg">
<g id="icon-openAI">
<path id="shape-openai" d="M68.7824 61.2921V51.8088C68.7824 51.0102 69.1081 50.411 69.8671 50.0122L90.5864 39.0316C93.4067 37.5343 96.7695 36.8359 100.24 36.8359C113.257 36.8359 121.502 46.1197 121.502 56.0018C121.502 56.7004 121.502 57.4991 121.393 58.2977L99.9147 46.718C98.6132 46.0196 97.311 46.0196 96.0095 46.718L68.7824 61.2921ZM117.162 98.2271V75.5667C117.162 74.1688 116.511 73.1706 115.21 72.472L87.9824 57.8979L96.8774 53.2059C97.6365 52.807 98.2876 52.807 99.0468 53.2059L119.766 64.1864C125.732 67.3812 129.745 74.1688 129.745 80.7568C129.745 88.3431 124.865 95.3311 117.162 98.2262V98.2271ZM62.3824 78.2625L53.4875 73.4712C52.7285 73.0724 52.4028 72.4731 52.4028 71.6744V49.7134C52.4028 39.0326 61.2977 30.9463 73.3387 30.9463C77.8952 30.9463 82.1248 32.3442 85.7054 34.8397L64.3359 46.2199C63.0346 46.9183 62.3835 47.9165 62.3835 49.3146V78.2633L62.3824 78.2625ZM81.5285 88.4442L68.7824 81.8561V67.8813L81.5285 61.2932L94.2737 67.8813V81.8561L81.5285 88.4442ZM89.7182 118.791C85.1619 118.791 80.9323 117.393 77.3517 114.898L98.721 103.517C100.023 102.819 100.674 101.821 100.674 100.423V71.474L109.677 76.2653C110.436 76.6641 110.762 77.2633 110.762 78.0622V100.023C110.762 110.704 101.758 118.79 89.7182 118.79V118.791ZM64.0095 96.5305L43.2901 85.5501C37.3236 82.3552 33.3105 75.5677 33.3105 68.9796C33.3105 61.2932 38.3005 54.4054 46.0017 51.5103V74.2699C46.0017 75.6678 46.653 76.666 47.9543 77.3646L75.0736 91.8384L66.1786 96.5305C65.4197 96.9293 64.7684 96.9293 64.0095 96.5305ZM62.8169 112.901C50.5591 112.901 41.5555 104.416 41.5555 93.9349C41.5555 93.1362 41.6642 92.3375 41.7721 91.5389L63.1416 102.919C64.4428 103.618 65.7453 103.618 67.0465 102.919L94.2737 88.4452V97.9285C94.2737 98.7272 93.9481 99.3264 93.1889 99.7252L72.4699 110.706C69.6494 112.203 66.2865 112.901 62.8158 112.901H62.8169ZM89.7182 124.78C102.844 124.78 113.799 116.195 116.295 104.815C128.444 101.92 136.254 91.4386 136.254 80.7578C136.254 73.7698 133.001 66.9823 127.143 62.0908C127.685 59.9943 128.011 57.8979 128.011 55.8025C128.011 41.5279 115.427 30.8461 100.891 30.8461C97.9632 30.8461 95.1427 31.2449 92.3222 32.1439C87.4401 27.7514 80.7146 24.9565 73.3387 24.9565C60.2132 24.9565 49.2578 33.5409 46.762 44.9211C34.6129 47.8163 26.8027 58.2977 26.8027 68.9785C26.8027 75.9665 30.0566 82.754 35.9145 87.6455C35.3721 89.742 35.0466 91.8384 35.0466 93.9341C35.0466 108.209 47.6299 118.89 62.1656 118.89C65.0939 118.89 67.9145 118.491 70.735 117.592C75.6159 121.985 82.3414 124.78 89.7182 124.78Z" fill="black"/>
</g>
</svg>
