<svg width="164" height="164" viewBox="0 0 164 164" fill="none" xmlns="http://www.w3.org/2000/svg">
<g id="Skill-Github">
<rect x="3.5" y="3.5" width="157" height="157" rx="11.5" fill="#F8FAFC"/>
<rect x="3.5" y="3.5" width="157" height="157" rx="11.5" stroke="#E2E8F0" stroke-width="7"/>
<g id="icon">
<path id="shape-github" fill-rule="evenodd" clip-rule="evenodd" d="M82.0005 18.1406C45.8692 18.1406 16.5703 47.4341 16.5703 83.5709C16.5703 112.48 35.3181 137.006 61.3155 145.657C64.5855 146.263 65.786 144.238 65.786 142.51C65.786 140.95 65.7253 135.795 65.6972 130.328C47.4944 134.286 43.6534 122.608 43.6534 122.608C40.677 115.045 36.3886 113.034 36.3886 113.034C30.4521 108.973 36.836 109.057 36.836 109.057C43.4064 109.518 46.866 115.799 46.866 115.799C52.7017 125.802 62.1725 122.91 65.9063 121.239C66.4935 117.01 68.1892 114.123 70.0604 112.489C55.5275 110.835 40.2501 105.225 40.2501 80.1535C40.2501 73.01 42.8061 67.1732 46.9917 62.5911C46.3123 60.9431 44.0727 54.2883 47.6255 45.2757C47.6255 45.2757 53.1199 43.5172 65.6235 51.9826C70.8427 50.5329 76.44 49.8058 82.0005 49.7809C87.5611 49.8058 93.1627 50.5329 98.3917 51.9826C110.88 43.5172 116.367 45.2757 116.367 45.2757C119.928 54.2883 117.688 60.9431 117.008 62.5911C121.204 67.1732 123.742 73.01 123.742 80.1535C123.742 105.284 108.436 110.818 93.8659 112.437C96.2128 114.468 98.3039 118.45 98.3039 124.554C98.3039 133.309 98.2281 140.355 98.2281 142.51C98.2281 144.251 99.4058 146.291 102.722 145.649C128.706 136.987 147.43 112.47 147.43 83.5709C147.43 47.4341 118.135 18.1406 82.0005 18.1406ZM41.0761 111.347C40.932 111.672 40.4205 111.77 39.9546 111.547C39.4801 111.333 39.2135 110.89 39.3674 110.564C39.5082 110.229 40.0207 110.136 40.4942 110.36C40.9699 110.574 41.2408 111.021 41.0761 111.347ZM44.2945 114.219C43.9825 114.508 43.3724 114.374 42.9585 113.917C42.5306 113.461 42.4504 112.851 42.7668 112.557C43.0886 112.268 43.6802 112.403 44.1092 112.859C44.5372 113.321 44.6206 113.927 44.2945 114.219ZM46.5025 117.893C46.1016 118.172 45.4461 117.911 45.0408 117.329C44.6399 116.747 44.6399 116.049 45.0495 115.77C45.4558 115.49 46.1016 115.742 46.5122 116.319C46.912 116.911 46.912 117.609 46.5025 117.893ZM50.2366 122.149C49.878 122.544 49.1141 122.438 48.555 121.899C47.983 121.371 47.8237 120.622 48.1834 120.227C48.5464 119.83 49.3146 119.942 49.878 120.477C50.4457 121.004 50.6191 121.758 50.2366 122.149ZM55.0627 123.585C54.9045 124.098 54.1688 124.331 53.4277 124.113C52.6876 123.889 52.2033 123.289 52.3528 122.771C52.5067 122.255 53.2456 122.012 53.9922 122.245C54.7311 122.468 55.2165 123.064 55.0627 123.585ZM60.5549 124.195C60.5733 124.734 59.9449 125.182 59.1669 125.192C58.3846 125.209 57.7519 124.772 57.7432 124.241C57.7432 123.696 58.3575 123.253 59.1398 123.24C59.9178 123.225 60.5549 123.658 60.5549 124.195ZM65.9504 123.988C66.0436 124.515 65.5029 125.055 64.7304 125.199C63.9708 125.338 63.2676 125.013 63.1712 124.491C63.0769 123.951 63.6274 123.41 64.3858 123.271C65.1594 123.136 65.8518 123.453 65.9504 123.988Z" fill="#161614"/>
</g>
</g>
</svg>
