<svg width="164" height="164" viewBox="0 0 164 164" fill="none" xmlns="http://www.w3.org/2000/svg">
<g id="Skill-ESLint">
<rect x="3.5" y="3.5" width="157" height="157" rx="11.5" fill="white"/>
<rect x="3.5" y="3.5" width="157" height="157" rx="11.5" stroke="#E2E8F0" stroke-width="7"/>
<g id="icon">
<path id="shape-innerCircle" d="M108.084 66.2201L83.0142 51.7401C82.7058 51.5617 82.3558 51.4678 81.9996 51.4678C81.6434 51.4678 81.2934 51.5617 80.985 51.7401L55.915 66.2201C55.6066 66.3979 55.3505 66.6538 55.1722 66.962C54.994 67.2703 54.8999 67.62 54.8994 67.9761V96.9361C54.8994 97.6601 55.2873 98.3301 55.915 98.6941L80.985 113.174C81.6127 113.536 82.3844 113.536 83.0142 113.174L108.084 98.6941C108.712 98.3321 109.098 97.6621 109.098 96.9361V67.9761C109.098 67.2501 108.712 66.582 108.084 66.2181V66.2201Z" fill="#3F3F46"/>
<path id="shape-outerCircle" d="M16.8146 79.41L46.7707 27.276C47.8583 25.39 49.8694 24 52.0446 24H111.955C114.132 24 116.141 25.39 117.231 27.276L147.185 79.296C147.719 80.2323 148 81.2918 148 82.37C148 83.4482 147.719 84.5077 147.185 85.444L117.231 137.152C116.141 139.036 114.132 140 111.955 140H52.0446C49.8694 140 47.8583 139.066 46.7707 137.18L16.8166 85.388C16.282 84.4823 16 83.4498 16 82.398C16 81.3462 16.282 80.3137 16.8166 79.408L16.8146 79.41ZM41.6187 104.478C41.6187 105.246 42.0806 105.954 42.7443 106.338L80.9011 128.36C81.5648 128.744 82.3965 128.744 83.0602 128.36L121.245 106.338C121.909 105.954 122.373 105.246 122.373 104.478V60.432C122.373 59.666 121.915 58.956 121.253 58.572L83.0942 36.554C82.7659 36.3656 82.3941 36.2664 82.0156 36.2664C81.6372 36.2664 81.2653 36.3656 80.937 36.554L42.7483 58.574C42.0846 58.958 41.6167 59.668 41.6167 60.434V104.48L41.6187 104.478Z" fill="#18181B"/>
</g>
</g>
</svg>
